<svg xmlns="http://www.w3.org/2000/svg" viewBox="0 0 614.3 58.62"><defs><style>.cls-1{fill:#1b1b1b;}.cls-2{fill:#ffd44d;}</style></defs><g id="Layer_2" data-name="Layer 2"><g id="Layer_1-2" data-name="Layer 1"><path class="cls-1" d="M0,55.75V2.64A1.8,1.8,0,0,1,.54,1.32,1.83,1.83,0,0,1,1.86.78h21.2q12.2,0,20,7.14a25.49,25.49,0,0,1,6.37,9.24,31.72,31.72,0,0,1,2.17,12,32.05,32.05,0,0,1-2.17,12.08A25.26,25.26,0,0,1,43,50.54a26.4,26.4,0,0,1-8.89,5.28,32.44,32.44,0,0,1-11.06,1.79H1.86a1.83,1.83,0,0,1-1.32-.54A1.81,1.81,0,0,1,0,55.75ZM17.24,43.32h5.82a19.87,19.87,0,0,0,4.5-.54,10.26,10.26,0,0,0,4.2-2.06,11.06,11.06,0,0,0,3.06-4.27A18.13,18.13,0,0,0,36,29.27a18.16,18.16,0,0,0-1.21-7.18,10.92,10.92,0,0,0-3.1-4.27,10.58,10.58,0,0,0-4.2-2.06,19.34,19.34,0,0,0-4.46-.54H17.24a1.8,1.8,0,0,0-1.32.54,1.77,1.77,0,0,0-.55,1.32V41.46a1.77,1.77,0,0,0,.55,1.32A1.8,1.8,0,0,0,17.24,43.32Z"/><path class="cls-1" d="M73.76,16.93v3.26a1.8,1.8,0,0,0,.54,1.32,1.83,1.83,0,0,0,1.32.54h21a1.86,1.86,0,0,1,1.87,1.86V34.63A1.77,1.77,0,0,1,98,36a1.8,1.8,0,0,1-1.32.54h-21a1.86,1.86,0,0,0-1.86,1.87v3a1.84,1.84,0,0,0,1.86,1.86H99.77a1.8,1.8,0,0,1,1.32.54,1.83,1.83,0,0,1,.54,1.32V55.75a1.84,1.84,0,0,1-1.86,1.86H60.25a1.84,1.84,0,0,1-1.86-1.86V2.64a1.8,1.8,0,0,1,.54-1.32A1.8,1.8,0,0,1,60.25.78H99.77a1.8,1.8,0,0,1,1.32.54,1.8,1.8,0,0,1,.54,1.32V13.2a1.84,1.84,0,0,1-1.86,1.86H75.62a1.84,1.84,0,0,0-1.32.55A1.8,1.8,0,0,0,73.76,16.93Z"/><path class="cls-1" d="M153.89,45.19V55.75a1.82,1.82,0,0,1-.55,1.32,1.8,1.8,0,0,1-1.32.54H113.28a1.78,1.78,0,0,1-1.36-.54,1.86,1.86,0,0,1-.5-1.32V2.64a1.84,1.84,0,0,1,.5-1.32,1.78,1.78,0,0,1,1.36-.54h11.65a1.83,1.83,0,0,1,1.32.54,1.8,1.8,0,0,1,.54,1.32V41.46a1.89,1.89,0,0,0,.5,1.32,1.78,1.78,0,0,0,1.36.54H152a1.88,1.88,0,0,1,1.87,1.87Z"/><path class="cls-1" d="M173.38,57.61H161.72a1.74,1.74,0,0,1-1.35-.54,1.87,1.87,0,0,1-.51-1.32v-53a1.85,1.85,0,0,1,.51-1.32,1.75,1.75,0,0,1,1.35-.55h11.66a1.82,1.82,0,0,1,1.32.55,1.8,1.8,0,0,1,.54,1.32v53a1.84,1.84,0,0,1-1.86,1.86Z"/><path class="cls-1" d="M204.58,55.9,181.14,3a1.73,1.73,0,0,1,0-1.55,1.36,1.36,0,0,1,1.36-.7h12.65a2.73,2.73,0,0,1,1.52.5,3.57,3.57,0,0,1,1.12,1.21L211.42,33.7a1.14,1.14,0,0,0,1,.7,1.17,1.17,0,0,0,1-.7L227,2.49a3.6,3.6,0,0,1,1.13-1.21,2.67,2.67,0,0,1,1.51-.5h12.89a1.33,1.33,0,0,1,1.24.66,1.26,1.26,0,0,1,.08,1.28L220.19,55.9a3.51,3.51,0,0,1-1.13,1.21,2.67,2.67,0,0,1-1.51.5H207.22a2.7,2.7,0,0,1-1.51-.5A3.6,3.6,0,0,1,204.58,55.9Z"/><path class="cls-1" d="M265.38,16.93v3.26a1.84,1.84,0,0,0,1.86,1.86h21a1.8,1.8,0,0,1,1.32.54,1.83,1.83,0,0,1,.54,1.32V34.63a1.84,1.84,0,0,1-1.86,1.86h-21a1.77,1.77,0,0,0-1.32.55,1.8,1.8,0,0,0-.54,1.32v3a1.83,1.83,0,0,0,.54,1.32,1.8,1.8,0,0,0,1.32.54h24.15A1.84,1.84,0,0,1,293.25,45V55.75a1.84,1.84,0,0,1-1.86,1.86H251.87A1.86,1.86,0,0,1,250,55.75V2.64a1.77,1.77,0,0,1,.55-1.32,1.8,1.8,0,0,1,1.32-.54h39.52a1.83,1.83,0,0,1,1.32.54,1.8,1.8,0,0,1,.54,1.32V13.2a1.8,1.8,0,0,1-.54,1.32,1.83,1.83,0,0,1-1.32.54H267.24a1.86,1.86,0,0,0-1.86,1.87Z"/><path class="cls-1" d="M316.69,57.61H305.06a1.83,1.83,0,0,1-1.33-.54,1.81,1.81,0,0,1-.54-1.32V2.64a1.8,1.8,0,0,1,.54-1.32,1.8,1.8,0,0,1,1.32-.54H329.2a22.29,22.29,0,0,1,8.31,1.51A18.77,18.77,0,0,1,344,6.52,19.59,19.59,0,0,1,348.18,13a21.65,21.65,0,0,1,1.52,8.23,21.73,21.73,0,0,1-2.26,9.55,19.77,19.77,0,0,1-2.56,3.92,14.19,14.19,0,0,1-3.34,2.91,2.18,2.18,0,0,0-.81,1.13A1.39,1.39,0,0,0,341,40q3,3.87,6.21,8c2.17,2.75,4.12,5.26,5.82,7.53a1.45,1.45,0,0,1,.24,1.36,1,1,0,0,1-1,.74H337.82a3.8,3.8,0,0,1-1.67-.43,3.46,3.46,0,0,1-1.36-1q-2.48-3.26-4.91-6.59t-4.83-6.76a3.79,3.79,0,0,0-1.31-1.05,3.68,3.68,0,0,0-1.62-.42h-1.7a1.84,1.84,0,0,0-1.86,1.86V55.75a1.86,1.86,0,0,1-1.87,1.86ZM320.42,27h8.18a6,6,0,0,0,1.94-.35,5.47,5.47,0,0,0,1.85-1.09,5.57,5.57,0,0,0,1.93-4.38,7.49,7.49,0,0,0-.27-1.83,6.46,6.46,0,0,0-.93-2,5.47,5.47,0,0,0-1.77-1.63,5.33,5.33,0,0,0-2.75-.66h-8.18a1.86,1.86,0,0,0-1.86,1.87v8.23a1.83,1.83,0,0,0,.54,1.32A1.8,1.8,0,0,0,320.42,27Z"/><path class="cls-1" d="M405.05,3,385.64,34.47a9.31,9.31,0,0,0-.7,1.71,6.41,6.41,0,0,0-.31,1.79V55.75a1.81,1.81,0,0,1-.54,1.32,1.79,1.79,0,0,1-1.31.54H371.11a1.79,1.79,0,0,1-1.31-.54,1.81,1.81,0,0,1-.54-1.32V38a7.49,7.49,0,0,0-.27-1.82,6,6,0,0,0-.66-1.67q-4.66-8-9.51-15.68T349.15,3A1.74,1.74,0,0,1,349,1.59a1,1,0,0,1,1-.74h13.82a3.25,3.25,0,0,1,1.59.47,3.07,3.07,0,0,1,1.2,1.17l9.52,16.61a1.09,1.09,0,0,0,.92.62,1.12,1.12,0,0,0,.93-.62l9.44-16.61a3.07,3.07,0,0,1,1.2-1.17,3.25,3.25,0,0,1,1.59-.47h14a1.26,1.26,0,0,1,1.13.55C405.56,1.76,405.47,2.3,405.05,3Z"/><path class="cls-2" d="M413.67,50.16a7.8,7.8,0,0,1-.62,3.1,7.67,7.67,0,0,1-1.71,2.56,8,8,0,0,1-5.66,2.33,7.56,7.56,0,0,1-3.07-.62,7.81,7.81,0,0,1-2.52-1.71,7.67,7.67,0,0,1-1.71-2.56,7.8,7.8,0,0,1-.62-3.1,7.27,7.27,0,0,1,.62-3,8.14,8.14,0,0,1,1.71-2.49,8,8,0,0,1,2.52-1.7,7.56,7.56,0,0,1,3.07-.62,7.8,7.8,0,0,1,3.1.62,7.9,7.9,0,0,1,2.56,1.7,8.14,8.14,0,0,1,1.71,2.49A7.27,7.27,0,0,1,413.67,50.16Z"/><path class="cls-1" d="M434.4,16.93v3.26a1.77,1.77,0,0,0,.55,1.32,1.8,1.8,0,0,0,1.32.54h21a1.84,1.84,0,0,1,1.86,1.86V34.63a1.8,1.8,0,0,1-.54,1.32,1.83,1.83,0,0,1-1.32.54h-21a1.88,1.88,0,0,0-1.87,1.87v3a1.86,1.86,0,0,0,1.87,1.86h24.14a1.8,1.8,0,0,1,1.32.54,1.84,1.84,0,0,1,.55,1.32V55.75a1.82,1.82,0,0,1-.55,1.32,1.8,1.8,0,0,1-1.32.54H420.89A1.84,1.84,0,0,1,419,55.75V2.64A1.84,1.84,0,0,1,420.89.78h39.52a1.8,1.8,0,0,1,1.32.54,1.8,1.8,0,0,1,.55,1.32V13.2a1.86,1.86,0,0,1-1.87,1.86H436.27a1.8,1.8,0,0,0-1.32.55A1.77,1.77,0,0,0,434.4,16.93Z"/><path class="cls-1" d="M488.52,2.56a3,3,0,0,1,1.05-1.2,2.73,2.73,0,0,1,1.59-.51H502a2.61,2.61,0,0,1,1.51.51,2.9,2.9,0,0,1,1,1.2l22.67,52.8a1.58,1.58,0,0,1-.11,1.47,1.74,1.74,0,0,1-1.67.78H512.2a2.8,2.8,0,0,1-1.59-.5,3.6,3.6,0,0,1-1.13-1.21l-2.09-4.66a3.67,3.67,0,0,0-1.13-1.2,2.62,2.62,0,0,0-1.51-.5H488.36a2.72,2.72,0,0,0-1.59.5,3,3,0,0,0-1,1.2l-2.17,4.66a2.93,2.93,0,0,1-1.05,1.21,2.67,2.67,0,0,1-1.51.5H467.63a2.45,2.45,0,0,1-.81-.15,1.73,1.73,0,0,1-.7-.47,1.56,1.56,0,0,1-.35-.78,1.84,1.84,0,0,1,.23-1.08Zm4.58,33.78H500a1.28,1.28,0,0,0,1.13-.51,1.07,1.07,0,0,0,0-1.2q-.78-2-1.87-4.54c-.72-1.74-1.39-3.35-2-4.86-.21-.46-.44-.69-.7-.69s-.5.23-.7.69l-3.88,9.4a1.22,1.22,0,0,0,0,1.2A1.24,1.24,0,0,0,493.1,36.34Z"/><path class="cls-1" d="M564.06,15.06H553.2a1.8,1.8,0,0,0-1.32.55,1.77,1.77,0,0,0-.55,1.32V55.75a1.9,1.9,0,0,1-.5,1.32,1.78,1.78,0,0,1-1.36.54H537.82A1.84,1.84,0,0,1,536,55.75V16.93a1.85,1.85,0,0,0-.51-1.32,1.77,1.77,0,0,0-1.36-.55h-11a1.84,1.84,0,0,1-1.86-1.86V2.64a1.8,1.8,0,0,1,.54-1.32,1.8,1.8,0,0,1,1.32-.54h41a1.76,1.76,0,0,1,1.36.54,1.85,1.85,0,0,1,.51,1.32V13.2a1.85,1.85,0,0,1-.51,1.32A1.76,1.76,0,0,1,564.06,15.06Z"/><path class="cls-1" d="M575.94,38.12a43.74,43.74,0,0,0,8.31,4.27A21.77,21.77,0,0,0,591.94,44a11.09,11.09,0,0,0,5.2-1,3.12,3.12,0,0,0,1.79-2.91,1.88,1.88,0,0,0-.78-1.59,6.59,6.59,0,0,0-2.06-1,19.77,19.77,0,0,0-3-.62c-1.14-.16-2.3-.36-3.49-.62l-4-.74a34.12,34.12,0,0,1-4.7-1.24,32.87,32.87,0,0,1-4.77-2.06A16.43,16.43,0,0,1,571.91,29a14.84,14.84,0,0,1-3-4.62,16.3,16.3,0,0,1-1.13-6.33,17,17,0,0,1,2.1-8.85,16.56,16.56,0,0,1,5.32-5.55A21,21,0,0,1,582.39.82,37.61,37.61,0,0,1,590.07,0a33.61,33.61,0,0,1,11.69,1.9,37.58,37.58,0,0,1,9.9,5.55,2,2,0,0,1,.7,1.32,1.94,1.94,0,0,1-.39,1.4l-6.06,8.62a2,2,0,0,1-1.24.78,1.7,1.7,0,0,1-1.4-.31,31.58,31.58,0,0,0-7.37-3.54,21.58,21.58,0,0,0-6.29-1.05c-.57,0-1.23,0-2,0a9.86,9.86,0,0,0-2.14.31,3.9,3.9,0,0,0-1.67.9,2.21,2.21,0,0,0-.66,1.7c0,.73.55,1.38,1.63,1.95A20.42,20.42,0,0,0,588.52,21a35.66,35.66,0,0,0,4,1c1.29.24,2.12.38,2.48.43A56,56,0,0,1,601.18,24a22.55,22.55,0,0,1,6.25,3.11,17.39,17.39,0,0,1,4.89,5.35,15.85,15.85,0,0,1,2,8.27,18.42,18.42,0,0,1-1.63,8,14.94,14.94,0,0,1-4.54,5.55,19.84,19.84,0,0,1-7,3.22,36.27,36.27,0,0,1-9,1,40.59,40.59,0,0,1-7.53-.66A37.24,37.24,0,0,1,578,56.13a33.8,33.8,0,0,1-5.63-2.75A41.65,41.65,0,0,1,567.64,50a1.71,1.71,0,0,1-.7-1.28,1.94,1.94,0,0,1,.39-1.44l6-8.61a2,2,0,0,1,1.25-.78A1.85,1.85,0,0,1,575.94,38.12Z"/></g></g></svg>